<svg width="28" height="28" viewBox="0 0 28 28" fill="none" xmlns="http://www.w3.org/2000/svg">
<g clip-path="url(#clip0_2_3608)">
<rect x="0.979492" y="0.0550537" width="27.01" height="27.01" rx="13.505" fill="#F1F4FF"/>
<g clip-path="url(#clip1_2_3608)">
<path d="M27.9895 0.0550537H0.979492V27.0651H27.9895V0.0550537Z" fill="#FF7A59"/>
<path fill-rule="evenodd" clip-rule="evenodd" d="M16.9099 17.0717C15.8638 17.0717 15.0158 16.2325 15.0158 15.1974C15.0158 14.1622 15.8638 13.323 16.9099 13.323C17.956 13.323 18.804 14.1622 18.804 15.1974C18.804 16.2325 17.956 17.0717 16.9099 17.0717ZM17.4769 11.5888V9.92144C17.9167 9.71586 18.2248 9.27556 18.2248 8.76461V8.72612C18.2248 8.0209 17.6418 7.44394 16.9291 7.44394H16.8904C16.1778 7.44394 15.5948 8.0209 15.5948 8.72612V8.76461C15.5948 9.27556 15.9029 9.71603 16.3427 9.9216V11.5888C15.6878 11.689 15.0896 11.9563 14.5961 12.3496L9.96991 8.78837C10.0004 8.67235 10.0219 8.55291 10.0221 8.4274C10.0228 7.62884 9.36961 6.98047 8.5623 6.97937C7.75538 6.97848 7.10005 7.62504 7.09912 8.42377C7.09819 9.22251 7.75137 9.87088 8.55868 9.8718C8.82169 9.87214 9.0652 9.79824 9.27858 9.67809L13.8292 13.1815C13.4423 13.7595 13.2155 14.4519 13.2155 15.1974C13.2155 15.9778 13.4646 16.6997 13.8855 17.2934L12.5018 18.663C12.3923 18.6305 12.2789 18.6078 12.1586 18.6078C11.4954 18.6078 10.9577 19.1398 10.9577 19.7961C10.9577 20.4525 11.4954 20.9846 12.1586 20.9846C12.8219 20.9846 13.3596 20.4525 13.3596 19.7961C13.3596 19.6774 13.3367 19.565 13.3038 19.4567L14.6726 18.102C15.294 18.5713 16.0679 18.8533 16.9099 18.8533C18.9503 18.8533 20.6041 17.2165 20.6041 15.1974C20.6041 13.3696 19.2472 11.8595 17.4769 11.5888Z" fill="white"/>
</g>
</g>
<defs>
<clipPath id="clip0_2_3608">
<rect x="0.979492" y="0.0550537" width="27.01" height="27.01" rx="13.505" fill="white"/>
</clipPath>
<clipPath id="clip1_2_3608">
<rect width="27.01" height="27.01" fill="white" transform="translate(0.979492 0.0550537)"/>
</clipPath>
</defs>
</svg>
