<svg width="30" height="30" viewBox="0 0 30 30" fill="none" xmlns="http://www.w3.org/2000/svg">
<mask id="mask0_2_5293" style="mask-type:luminance" maskUnits="userSpaceOnUse" x="0" y="0" width="30" height="30">
<path d="M30 0H0V30H30V0Z" fill="white"/>
</mask>
<g mask="url(#mask0_2_5293)">
<path d="M23.25 20.6156C23.25 21.0296 22.9139 21.3656 22.5 21.3656H7.5C7.08608 21.3656 6.75 21.0296 6.75 20.6156C6.75 20.2017 7.08608 19.8656 7.5 19.8656H22.5C22.9139 19.8656 23.25 20.2017 23.25 20.6156Z" fill="#1D1D1D"/>
<path d="M23.25 14.9906C23.25 15.4046 22.9139 15.7406 22.5 15.7406H7.5C7.08608 15.7406 6.75 15.4046 6.75 14.9906C6.75 14.5767 7.08608 14.2406 7.5 14.2406H22.5C22.9139 14.2406 23.25 14.5767 23.25 14.9906Z" fill="#1D1D1D"/>
<path d="M23.25 9.36563C23.25 9.77956 22.9139 10.1156 22.5 10.1156H7.5C7.08608 10.1156 6.75 9.77956 6.75 9.36563C6.75 8.95171 7.08608 8.61563 7.5 8.61563H22.5C22.9139 8.61563 23.25 8.95171 23.25 9.36563Z" fill="#1D1D1D"/>
</g>
</svg>
