<svg width="40" height="30" viewBox="0 0 40 30" fill="none" xmlns="http://www.w3.org/2000/svg">
<g clip-path="url(#clip0_2_5280)">
<mask id="mask0_2_5280" style="mask-type:luminance" maskUnits="userSpaceOnUse" x="5" y="0" width="30" height="30">
<path d="M35 0H5V30H35V0Z" fill="white"/>
</mask>
<g mask="url(#mask0_2_5280)">
<path d="M28.25 20.6156C28.25 21.0296 27.9139 21.3656 27.5 21.3656H12.5C12.0861 21.3656 11.75 21.0296 11.75 20.6156C11.75 20.2017 12.0861 19.8656 12.5 19.8656H27.5C27.9139 19.8656 28.25 20.2017 28.25 20.6156Z" fill="#1D1D1D"/>
<path d="M28.25 14.9906C28.25 15.4046 27.9139 15.7406 27.5 15.7406H12.5C12.0861 15.7406 11.75 15.4046 11.75 14.9906C11.75 14.5767 12.0861 14.2406 12.5 14.2406H27.5C27.9139 14.2406 28.25 14.5767 28.25 14.9906Z" fill="#1D1D1D"/>
<path d="M28.25 9.36563C28.25 9.77956 27.9139 10.1156 27.5 10.1156H12.5C12.0861 10.1156 11.75 9.77956 11.75 9.36563C11.75 8.95171 12.0861 8.61563 12.5 8.61563H27.5C27.9139 8.61563 28.25 8.95171 28.25 9.36563Z" fill="#1D1D1D"/>
</g>
</g>
<defs>
<clipPath id="clip0_2_5280">
<rect width="40" height="30" fill="white"/>
</clipPath>
</defs>
</svg>
